<svg width="128" height="128" viewBox="0 0 128 128" fill="none" xmlns="http://www.w3.org/2000/svg"><g clip-path="url(#a)"><path d="M119.31 64c0-30.546-24.768-55.307-55.31-55.307S8.693 33.454 8.693 64 33.454 119.31 64 119.31 119.31 94.542 119.31 64m8.69 0c0 35.346-28.654 64-64 64S0 99.346 0 64 28.654 0 64 0s64 28.654 64 64" fill="url(#b)"/><path d="M64.832 79.68c-.04 2.887-.21 5.76-1.237 8.512-1.92 5.148-5.636 8.17-10.955 9.244a23.5 23.5 0 0 1-4.391.41c-6.809.067-13.618.067-20.43.092h-.41V82.592h.605c6.247.028 12.498.046 18.749.007.995-.003 2.016-.174 2.972-.448 2.009-.583 3.332-2.268 3.435-4.352.1-2.098.15-4.203.092-6.304-.081-2.901-2.165-4.97-5.066-5.077-2.404-.086-4.815-.09-7.225-.096-4.32-.014-8.64 0-12.964-.022h-.597V54.151h.547c5.92 0 11.847.014 17.768-.021a8 8 0 0 0 2.58-.434c1.711-.597 2.76-2.28 2.774-4.22a361 361 0 0 0 0-3.225c-.007-2.468-1.675-4.15-4.128-4.153H27.502V30.044h.48c8.676.032 17.351.022 26.027.04 1.795 0 3.612.081 5.234.984 1.92 1.067 3.14 2.692 3.26 4.903.135 2.578.107 5.167.11 7.752 0 1.816-.014 3.633-.1 5.443-.127 2.496-.764 4.846-2.389 6.816-1.33 1.61-2.98 2.752-5.048 3.225-.029.004-.047.036-.114.1.249.053.466.088.682.142 4.495 1.134 7.42 3.858 8.399 8.444.355 1.686.569 3.414.675 5.135.132 2.211.135 4.426.107 6.641z" fill="url(#c)"/><path d="M88.53 79.822c-.004 2.855-.391 5.66-1.682 8.256-2.421 4.882-6.343 7.897-11.555 9.28-2.39.633-4.822.633-7.297.566V86.425c.747-.053 1.49-.071 2.223-.164 3.11-.38 5.123-2.183 6.304-5.013.782-1.874 1.113-3.868 1.152-5.877.106-5.177.149-10.358.178-15.534q.028-3.579-.096-7.154c-.082-2.25-.356-4.48-1.227-6.592-1.21-2.951-3.534-4.551-6.717-4.583-1.209-.015-2.41 0-3.64 0V30.1c.053-.017.096-.053.135-.053 2.183.032 4.373-.06 6.549.121a16.7 16.7 0 0 1 10.162 4.505 16.7 16.7 0 0 1 5.226 9.582c.185 1.063.295 2.158.295 3.24q.03 16.518-.01 33.03z" fill="url(#d)"/><path d="M100.587 30.116v67.79a7 7 0 0 1-.427.028c-2.169 0-4.338.01-6.507 0a3.6 3.6 0 0 1-.807-.096 1.03 1.03 0 0 1-.867-.91c-.05-.316-.043-.644-.043-.96q.007-32.05-.021-64.1c0-1.24.522-1.738 1.742-1.745 1.767-.011 3.534 0 5.301-.008z" fill="url(#e)"/></g><defs><linearGradient id="b" x1="13.259" y1="114.741" x2="114.741" y2="13.259" gradientUnits="userSpaceOnUse"><stop stop-color="#ff6a00"/><stop offset=".55" stop-color="#5d8bf9"/><stop offset="1" stop-color="#333ab5"/></linearGradient><linearGradient id="c" x1="27.417" y1="63.996" x2="64.85" y2="63.996" gradientUnits="userSpaceOnUse"><stop stop-color="#ff5c0f"/><stop offset="1" stop-color="#ff9e15"/></linearGradient><linearGradient id="d" x1="66.172" y1="64" x2="88.555" y2="64" gradientUnits="userSpaceOnUse"><stop stop-color="#ff5c0f"/><stop offset="1" stop-color="#ff9e15"/></linearGradient><linearGradient id="e" x1="91.915" y1="64.028" x2="100.587" y2="64.028" gradientUnits="userSpaceOnUse"><stop stop-color="#ff5c0f"/><stop offset="1" stop-color="#ff9e15"/></linearGradient><clipPath id="a"><path fill="#fff" d="M0 0h128v128H0z"/></clipPath></defs></svg>